<mxfile host="www.draw.io" modified="2019-11-13T10:57:21.471Z" agent="Mozilla/5.0 (Windows NT 10.0; Win64; x64) AppleWebKit/537.36 (KHTML, like Gecko) Chrome/78.0.3904.70 Safari/537.36" etag="ahB6096uGatii2N4IVHH" version="12.2.4" type="github" pages="1">
  <diagram id="wCsNc--1NdObcjdGJoei" name="第 1 页">
    <mxGraphModel dx="1422" dy="713" grid="1" gridSize="10" guides="1" tooltips="1" connect="1" arrows="1" fold="1" page="1" pageScale="1" pageWidth="827" pageHeight="1169" math="0" shadow="0">
      <root>
        <mxCell id="0"/>
        <mxCell id="1" parent="0"/>
        <mxCell id="mY5O3j1vQfVEt_U1ooQU-1" value="" style="rounded=1;whiteSpace=wrap;html=1;" vertex="1" parent="1">
          <mxGeometry x="240" y="330" width="350" height="160" as="geometry"/>
        </mxCell>
        <mxCell id="mY5O3j1vQfVEt_U1ooQU-2" value="LongAdder" style="text;html=1;strokeColor=none;fillColor=none;align=center;verticalAlign=middle;whiteSpace=wrap;rounded=0;" vertex="1" parent="1">
          <mxGeometry x="373" y="350" width="87" height="30" as="geometry"/>
        </mxCell>
        <mxCell id="mY5O3j1vQfVEt_U1ooQU-3" value="base = 0" style="rounded=0;whiteSpace=wrap;html=1;" vertex="1" parent="1">
          <mxGeometry x="368" y="390" width="97" height="40" as="geometry"/>
        </mxCell>
        <mxCell id="mY5O3j1vQfVEt_U1ooQU-11" style="edgeStyle=orthogonalEdgeStyle;rounded=0;orthogonalLoop=1;jettySize=auto;html=1;exitX=0.5;exitY=1;exitDx=0;exitDy=0;entryX=0;entryY=0.5;entryDx=0;entryDy=0;" edge="1" parent="1" source="mY5O3j1vQfVEt_U1ooQU-5" target="mY5O3j1vQfVEt_U1ooQU-10">
          <mxGeometry relative="1" as="geometry"/>
        </mxCell>
        <mxCell id="mY5O3j1vQfVEt_U1ooQU-5" value="cell = 0" style="rounded=0;whiteSpace=wrap;html=1;fillColor=#ffe6cc;strokeColor=#d79b00;" vertex="1" parent="1">
          <mxGeometry x="270" y="450" width="60" height="30" as="geometry"/>
        </mxCell>
        <mxCell id="mY5O3j1vQfVEt_U1ooQU-12" style="edgeStyle=orthogonalEdgeStyle;rounded=0;orthogonalLoop=1;jettySize=auto;html=1;exitX=0.5;exitY=1;exitDx=0;exitDy=0;entryX=0.25;entryY=0;entryDx=0;entryDy=0;" edge="1" parent="1" source="mY5O3j1vQfVEt_U1ooQU-6" target="mY5O3j1vQfVEt_U1ooQU-10">
          <mxGeometry relative="1" as="geometry"/>
        </mxCell>
        <mxCell id="mY5O3j1vQfVEt_U1ooQU-6" value="cell = 0" style="rounded=0;whiteSpace=wrap;html=1;fillColor=#ffe6cc;strokeColor=#d79b00;" vertex="1" parent="1">
          <mxGeometry x="330" y="450" width="60" height="30" as="geometry"/>
        </mxCell>
        <mxCell id="mY5O3j1vQfVEt_U1ooQU-13" style="edgeStyle=orthogonalEdgeStyle;rounded=0;orthogonalLoop=1;jettySize=auto;html=1;exitX=0.5;exitY=1;exitDx=0;exitDy=0;entryX=0.5;entryY=0;entryDx=0;entryDy=0;" edge="1" parent="1" source="mY5O3j1vQfVEt_U1ooQU-7" target="mY5O3j1vQfVEt_U1ooQU-10">
          <mxGeometry relative="1" as="geometry"/>
        </mxCell>
        <mxCell id="mY5O3j1vQfVEt_U1ooQU-7" value="cell = 0" style="rounded=0;whiteSpace=wrap;html=1;fillColor=#ffe6cc;strokeColor=#d79b00;" vertex="1" parent="1">
          <mxGeometry x="390" y="450" width="60" height="30" as="geometry"/>
        </mxCell>
        <mxCell id="mY5O3j1vQfVEt_U1ooQU-14" style="edgeStyle=orthogonalEdgeStyle;rounded=0;orthogonalLoop=1;jettySize=auto;html=1;exitX=0.5;exitY=1;exitDx=0;exitDy=0;entryX=0.75;entryY=0;entryDx=0;entryDy=0;" edge="1" parent="1" source="mY5O3j1vQfVEt_U1ooQU-8" target="mY5O3j1vQfVEt_U1ooQU-10">
          <mxGeometry relative="1" as="geometry"/>
        </mxCell>
        <mxCell id="mY5O3j1vQfVEt_U1ooQU-8" value="cell = 0" style="rounded=0;whiteSpace=wrap;html=1;fillColor=#ffe6cc;strokeColor=#d79b00;" vertex="1" parent="1">
          <mxGeometry x="450" y="450" width="60" height="30" as="geometry"/>
        </mxCell>
        <mxCell id="mY5O3j1vQfVEt_U1ooQU-15" style="edgeStyle=orthogonalEdgeStyle;rounded=0;orthogonalLoop=1;jettySize=auto;html=1;exitX=0.5;exitY=1;exitDx=0;exitDy=0;entryX=1;entryY=0.5;entryDx=0;entryDy=0;" edge="1" parent="1" source="mY5O3j1vQfVEt_U1ooQU-9" target="mY5O3j1vQfVEt_U1ooQU-10">
          <mxGeometry relative="1" as="geometry"/>
        </mxCell>
        <mxCell id="mY5O3j1vQfVEt_U1ooQU-9" value="cell = 0" style="rounded=0;whiteSpace=wrap;html=1;fillColor=#ffe6cc;strokeColor=#d79b00;" vertex="1" parent="1">
          <mxGeometry x="510" y="450" width="60" height="30" as="geometry"/>
        </mxCell>
        <mxCell id="mY5O3j1vQfVEt_U1ooQU-10" value="获取值" style="rounded=0;whiteSpace=wrap;html=1;" vertex="1" parent="1">
          <mxGeometry x="353" y="550" width="120" height="60" as="geometry"/>
        </mxCell>
        <mxCell id="mY5O3j1vQfVEt_U1ooQU-19" style="edgeStyle=orthogonalEdgeStyle;rounded=0;orthogonalLoop=1;jettySize=auto;html=1;exitX=0.5;exitY=1;exitDx=0;exitDy=0;entryX=0.151;entryY=-0.006;entryDx=0;entryDy=0;entryPerimeter=0;" edge="1" parent="1" source="mY5O3j1vQfVEt_U1ooQU-16" target="mY5O3j1vQfVEt_U1ooQU-1">
          <mxGeometry relative="1" as="geometry"/>
        </mxCell>
        <mxCell id="mY5O3j1vQfVEt_U1ooQU-16" value="线程1" style="rounded=1;whiteSpace=wrap;html=1;" vertex="1" parent="1">
          <mxGeometry x="180" y="190" width="120" height="60" as="geometry"/>
        </mxCell>
        <mxCell id="mY5O3j1vQfVEt_U1ooQU-20" style="edgeStyle=orthogonalEdgeStyle;rounded=0;orthogonalLoop=1;jettySize=auto;html=1;exitX=0.5;exitY=1;exitDx=0;exitDy=0;entryX=0.457;entryY=0;entryDx=0;entryDy=0;entryPerimeter=0;" edge="1" parent="1" source="mY5O3j1vQfVEt_U1ooQU-17" target="mY5O3j1vQfVEt_U1ooQU-1">
          <mxGeometry relative="1" as="geometry"/>
        </mxCell>
        <mxCell id="mY5O3j1vQfVEt_U1ooQU-17" value="线程1" style="rounded=1;whiteSpace=wrap;html=1;" vertex="1" parent="1">
          <mxGeometry x="340" y="190" width="120" height="60" as="geometry"/>
        </mxCell>
        <mxCell id="mY5O3j1vQfVEt_U1ooQU-21" style="edgeStyle=orthogonalEdgeStyle;rounded=0;orthogonalLoop=1;jettySize=auto;html=1;exitX=0.5;exitY=1;exitDx=0;exitDy=0;entryX=0.774;entryY=0;entryDx=0;entryDy=0;entryPerimeter=0;" edge="1" parent="1" source="mY5O3j1vQfVEt_U1ooQU-18" target="mY5O3j1vQfVEt_U1ooQU-1">
          <mxGeometry relative="1" as="geometry"/>
        </mxCell>
        <mxCell id="mY5O3j1vQfVEt_U1ooQU-18" value="线程1" style="rounded=1;whiteSpace=wrap;html=1;" vertex="1" parent="1">
          <mxGeometry x="510" y="190" width="120" height="60" as="geometry"/>
        </mxCell>
        <mxCell id="mY5O3j1vQfVEt_U1ooQU-22" value="分段的底层是cell数组&lt;br&gt;&lt;br&gt;如果某个线程对某个cell进行更新值时，发现很难更新，一直自旋，如果他CAS失败了，会自动迁移段，他会尝试去更新其他的cell" style="text;html=1;strokeColor=none;fillColor=none;align=left;verticalAlign=middle;whiteSpace=wrap;rounded=0;" vertex="1" parent="1">
          <mxGeometry x="50" y="350" width="120" height="30" as="geometry"/>
        </mxCell>
        <mxCell id="mY5O3j1vQfVEt_U1ooQU-23" value="分段迁移" style="text;html=1;strokeColor=#A50040;fillColor=#d80073;align=center;verticalAlign=middle;whiteSpace=wrap;rounded=0;fontColor=#ffffff;" vertex="1" parent="1">
          <mxGeometry x="50" y="450" width="80" height="15" as="geometry"/>
        </mxCell>
      </root>
    </mxGraphModel>
  </diagram>
</mxfile>
